<?xml version="1.0" encoding="utf-8"?>
<!DOCTYPE svg PUBLIC "-//W3C//DTD SVG 1.1//EN" "http://www.w3.org/Graphics/SVG/1.1/DTD/svg11.dtd">
<svg version="1.1" xmlns="http://www.w3.org/2000/svg" width="27px" height="16px" xml:space="preserve">
<path id="rect3143-3-5-1-2-7-3-8" fill="#D3E3F4" d="M0,0h11.876v16H0V0z"/>
<path id="rect3143-3-5-0-5-5-5-8-0" fill="#E9E9E9" d="M12.819,0v15.969h10.755c1.085-2.578,1.837-4.991,3.062-8.591L23.574,0
	H12.819z"/>
<path id="path3823-6-9" fill="#434343" d="M14.828,4.146c0.32,0.023,0.639,0.035,0.951,0.035c0.471,0,0.922-0.016,1.354-0.046
	l0.023-0.258L17.19,3.51c0.02-0.195,0.046-0.432,0.081-0.711c0.019-0.176,0.03-0.287,0.033-0.333l0.873,0.058
	c-0.073,0.577-0.133,1.091-0.179,1.542c1.116-0.119,2.233-0.331,3.349-0.637l0.092,0.809c-1.078,0.271-2.251,0.472-3.521,0.602
	c-0.05,0.463-0.082,0.968-0.098,1.514c0.524-0.187,1.14-0.313,1.847-0.378c0.064-0.207,0.136-0.461,0.213-0.763l0.865,0.201
	c-0.027,0.123-0.088,0.315-0.184,0.579c0.814,0.104,1.461,0.34,1.938,0.711c0.681,0.542,1.021,1.252,1.021,2.128
	c0,0.963-0.406,1.746-1.221,2.351c-0.635,0.47-1.505,0.784-2.609,0.94l-0.505-0.779c0.968-0.104,1.739-0.337,2.317-0.7
	c0.733-0.458,1.101-1.066,1.101-1.823c0-0.772-0.341-1.363-1.021-1.772c-0.345-0.21-0.764-0.344-1.256-0.401
	c-0.604,1.422-1.4,2.598-2.387,3.527c0.035,0.352,0.102,0.715,0.201,1.09l-0.849,0.314c-0.019-0.107-0.062-0.365-0.126-0.773
	c-0.654,0.462-1.27,0.693-1.847,0.693c-0.696,0-1.044-0.407-1.044-1.222c0-1.104,0.591-2.103,1.771-2.993
	c0.227-0.165,0.532-0.352,0.918-0.562c0.012-0.524,0.046-1.128,0.104-1.812c-0.585,0.046-1.143,0.069-1.675,0.069
	c-0.206,0-0.37-0.004-0.493-0.011L14.828,4.146 M16.955,7.53c-0.268,0.161-0.545,0.392-0.831,0.694
	c-0.612,0.619-0.94,1.226-0.986,1.817c0,0.054-0.006,0.094-0.017,0.121c0.011,0.038,0.017,0.084,0.017,0.138
	c0,0.252,0.112,0.378,0.339,0.378c0.492,0,1.02-0.258,1.582-0.773C17.002,9.292,16.967,8.501,16.955,7.53 M19.41,6.646
	c-0.57,0.08-1.111,0.226-1.623,0.436c0,0.883,0.018,1.581,0.052,2.093C18.473,8.468,18.997,7.625,19.41,6.646"/>
<path id="path3820-9-1" fill="#1A1A1A" d="M8.517,11.735L7.783,9.326h-3.69l-0.734,2.409H1.046L4.619,1.57h2.625l3.587,10.165H8.517
	 M7.271,7.525C6.592,5.342,6.209,4.107,6.122,3.821c-0.083-0.286-0.143-0.512-0.18-0.678C5.789,3.733,5.353,5.194,4.633,7.525H7.271
	"/>
<path id="rect3143-2-8-3-2-0-7-1" fill="#BCBCBC" d="M12.817,13.5V16h10.757l0.98-2.5C20.881,13.5,16.491,13.5,12.817,13.5z"/>
<path id="rect14723-7-2-9" fill="#3692D0" d="M0.011,13.511H3.58l2.367-3.116l2.367,3.116h3.57v2.484H0.011V13.511z"/>
</svg>
